# xmcd
#
# Track frame offsets:
#	150
#	13153
#	31382
#	53490
#	70237
#	84941
#	100155
#	111423
#	129061
#	145241
#	159159
#	182434
#
# Disc length: 2771 seconds
#
# Revision: 1
# Processed by: cddbd v1.5.2PL0 Copyright (c) Steve Scherf et al.
# Submitted via: audiograbber 1.83.01
#
DISCID=8d0ad10c
DTITLE=Big John Mills - Tributes, Heartaches And Texas
DYEAR=2007
DGENRE=Texas Country
TTITLE0=I Got the Dog and He Got You
TTITLE1=I'm Going Coastal
TTITLE2=If It Were Only a Dream
TTITLE3=My Arms Feel So Empty
TTITLE4=Chasing Rainbows
TTITLE5=Here Come the Heartaches Again
TTITLE6=Lonliest Man in Town
TTITLE7=Only One Love in a Lifetime
TTITLE8=Somebody Took My Sunshine Away
TTITLE9=I Got a Good Woman
TTITLE10=Rainy Night in Georgia
TTITLE11=Chicken Swing
EXTD=
EXTT0=
EXTT1=
EXTT2=
EXTT3=
EXTT4=
EXTT5=
EXTT6=
EXTT7=
EXTT8=
EXTT9=
EXTT10=
EXTT11=
PLAYORDER=
